<svg xmlns="http://www.w3.org/2000/svg" viewBox="0 0 127.14 96.36" role="img" aria-hidden="true">
  <path d="M107.7 8.07A105.15 105.15 0 0 0 81.47 0a72.06 72.06 0 0 0-3.36 6.91 97.68 97.68 0 0 0-29.08 0A72.06 72.06 0 0 0 45.67 0 105.89 105.89 0 0 0 19.39 8.09C2.79 32.65-1.71 56.6.54 80.21A106.27 106.27 0 0 0 33 96.36c2.63-3.49 4.94-7.19 6.89-11.08a68.42 68.42 0 0 1-10.85-5.17c.91-.66 1.79-1.35 2.64-2.09a74.78 74.78 0 0 0 62.78 0c.86.73 1.74 1.42 2.64 2.09a68.68 68.68 0 0 1-10.87 5.18c1.95 3.88 4.25 7.58 6.89 11.07a106.14 106.14 0 0 0 32.46-16.13c2.66-27.58-4.56-51.34-18.78-72.06ZM42.42 65.69c-6.07 0-11-5.63-11-12.56s4.9-12.56 11-12.56S53.4 46.2 53.4 53.13s-4.9 12.56-11 12.56Zm42.3 0c-6.07 0-11-5.63-11-12.56s4.9-12.56 11-12.56 11 5.63 11 12.56-4.91 12.56-11 12.56Z" fill="currentColor"></path>
</svg>
